<svg id="visual" viewBox="0 0 900 600" width="900" height="600" xmlns="http://www.w3.org/2000/svg" xmlns:xlink="http://www.w3.org/1999/xlink" version="1.1"><rect x="0" y="0" width="900" height="600" fill="#FFFFFF"></rect><defs><linearGradient id="grad1_0" x1="33.3%" y1="0%" x2="100%" y2="100%"><stop offset="20%" stop-color="#ffffff" stop-opacity="1"></stop><stop offset="80%" stop-color="#ffffff" stop-opacity="1"></stop></linearGradient></defs><defs><linearGradient id="grad2_0" x1="0%" y1="0%" x2="66.7%" y2="100%"><stop offset="20%" stop-color="#ffffff" stop-opacity="1"></stop><stop offset="80%" stop-color="#ffffff" stop-opacity="1"></stop></linearGradient></defs><g transform="translate(900, 0)"><path d="M0 216.3C-21.1 209.9 -42.2 203.4 -64.3 197.8C-86.4 192.2 -109.4 187.5 -127.2 175C-144.9 162.5 -157.3 142.2 -169.1 122.8C-180.8 103.5 -192 85.2 -199.7 64.9C-207.5 44.6 -211.9 22.3 -216.3 0L0 0Z" fill="#000000"></path></g><g transform="translate(0, 600)"><path d="M0 -216.3C18.5 -202.1 37 -187.9 59.6 -183.6C82.3 -179.2 109 -184.7 127.2 -175C145.3 -165.4 154.8 -140.6 165 -119.9C175.3 -99.2 186.3 -82.6 195 -63.3C203.6 -44 210 -22 216.3 0L0 0Z" fill="#000000"></path></g></svg>