<svg id="visual" viewBox="0 0 900 600" width="900" height="600" xmlns="http://www.w3.org/2000/svg" xmlns:xlink="http://www.w3.org/1999/xlink" version="1.1"><rect x="0" y="0" width="900" height="600" fill="#FFFFFF"></rect><defs><linearGradient id="grad1_0" x1="33.3%" y1="0%" x2="100%" y2="100%"><stop offset="20%" stop-color="#ffffff" stop-opacity="1"></stop><stop offset="80%" stop-color="#ffffff" stop-opacity="1"></stop></linearGradient></defs><defs><linearGradient id="grad2_0" x1="0%" y1="0%" x2="66.7%" y2="100%"><stop offset="20%" stop-color="#ffffff" stop-opacity="1"></stop><stop offset="80%" stop-color="#ffffff" stop-opacity="1"></stop></linearGradient></defs><g transform="translate(900, 0)"><path d="M0 216.3C-18.9 200.8 -37.9 185.2 -57.8 177.8C-77.7 170.5 -98.6 171.3 -119.9 165C-141.2 158.8 -162.9 145.5 -175 127.2C-187.1 108.8 -189.7 85.4 -195 63.3C-200.3 41.3 -208.3 20.7 -216.3 0L0 0Z" fill="#000000"></path></g><g transform="translate(0, 600)"><path d="M0 -216.3C24.8 -217.6 49.7 -218.9 66.9 -205.7C84 -192.6 93.5 -165.1 107.6 -148.1C121.7 -131 140.4 -124.5 153.7 -111.7C167 -98.8 175 -79.6 184.5 -59.9C194 -40.3 205.2 -20.1 216.3 0L0 0Z" fill="#000000"></path></g></svg>