<svg id="visual" viewBox="0 0 900 600" width="900" height="600" xmlns="http://www.w3.org/2000/svg" xmlns:xlink="http://www.w3.org/1999/xlink" version="1.1"><rect x="0" y="0" width="900" height="600" fill="#FFFFFF"></rect><defs><linearGradient id="grad1_0" x1="33.3%" y1="0%" x2="100%" y2="100%"><stop offset="20%" stop-color="#ffffff" stop-opacity="1"></stop><stop offset="80%" stop-color="#ffffff" stop-opacity="1"></stop></linearGradient></defs><defs><linearGradient id="grad2_0" x1="0%" y1="0%" x2="66.7%" y2="100%"><stop offset="20%" stop-color="#ffffff" stop-opacity="1"></stop><stop offset="80%" stop-color="#ffffff" stop-opacity="1"></stop></linearGradient></defs><g transform="translate(900, 0)"><path d="M0 216.3C-21.8 211 -43.6 205.7 -64.6 198.8C-85.5 191.8 -105.6 183.2 -124.6 171.5C-143.6 159.8 -161.6 145.2 -175 127.2C-188.5 109.2 -197.4 87.9 -203.5 66.1C-209.7 44.4 -213 22.2 -216.3 0L0 0Z" fill="#000000"></path></g><g transform="translate(0, 600)"><path d="M0 -216.3C21.2 -210 42.5 -203.6 64.3 -197.8C86.1 -192 108.4 -186.8 127.2 -175C146 -163.2 161.3 -144.7 172.3 -125.2C183.4 -105.7 190.2 -85 196.9 -64C203.5 -42.9 209.9 -21.5 216.3 0L0 0Z" fill="#000000"></path></g></svg>