<svg id="visual" viewBox="0 0 900 600" width="900" height="600" xmlns="http://www.w3.org/2000/svg" xmlns:xlink="http://www.w3.org/1999/xlink" version="1.1"><rect x="0" y="0" width="900" height="600" fill="#FFFFFF"></rect><defs><linearGradient id="grad1_0" x1="33.3%" y1="0%" x2="100%" y2="100%"><stop offset="20%" stop-color="#ffffff" stop-opacity="1"></stop><stop offset="80%" stop-color="#ffffff" stop-opacity="1"></stop></linearGradient></defs><defs><linearGradient id="grad2_0" x1="0%" y1="0%" x2="66.7%" y2="100%"><stop offset="20%" stop-color="#ffffff" stop-opacity="1"></stop><stop offset="80%" stop-color="#ffffff" stop-opacity="1"></stop></linearGradient></defs><g transform="translate(900, 0)"><path d="M0 216.3C-24.7 215.5 -49.4 214.8 -65.5 201.6C-81.7 188.5 -89.3 163 -109.9 151.3C-130.6 139.6 -164.2 141.7 -175 127.2C-185.8 112.6 -173.8 81.4 -176.9 57.5C-180 33.5 -198.2 16.8 -216.3 0L0 0Z" fill="#000000"></path></g><g transform="translate(0, 600)"><path d="M0 -216.3C19.8 -201.5 39.6 -186.6 57.5 -176.9C75.4 -167.1 91.4 -162.5 114 -156.9C136.7 -151.4 166.1 -144.9 175 -127.2C184 -109.4 172.5 -80.2 175.9 -57.2C179.4 -34.1 197.9 -17 216.3 0L0 0Z" fill="#000000"></path></g></svg>