<svg id="visual" viewBox="0 0 900 600" width="900" height="600" xmlns="http://www.w3.org/2000/svg" xmlns:xlink="http://www.w3.org/1999/xlink" version="1.1"><rect x="0" y="0" width="900" height="600" fill="#FFFFFF"></rect><defs><linearGradient id="grad1_0" x1="33.3%" y1="0%" x2="100%" y2="100%"><stop offset="20%" stop-color="#ffffff" stop-opacity="1"></stop><stop offset="80%" stop-color="#ffffff" stop-opacity="1"></stop></linearGradient></defs><defs><linearGradient id="grad2_0" x1="0%" y1="0%" x2="66.7%" y2="100%"><stop offset="20%" stop-color="#ffffff" stop-opacity="1"></stop><stop offset="80%" stop-color="#ffffff" stop-opacity="1"></stop></linearGradient></defs><g transform="translate(900, 0)"><path d="M0 216.3C-22.5 214.6 -45 213 -66.9 205.7C-88.7 198.5 -110 185.8 -121.7 167.5C-133.3 149.2 -135.4 125.3 -149.7 108.7C-163.9 92.2 -190.4 83 -203.5 66.1C-216.7 49.2 -216.5 24.6 -216.3 0L0 0Z" fill="#000000"></path></g><g transform="translate(0, 600)"><path d="M0 -216.3C20.1 -206.8 40.2 -197.3 62.4 -192.1C84.6 -187 108.9 -186.2 127.2 -175C145.4 -163.8 157.6 -142.3 168.3 -122.3C179 -102.2 188.2 -83.8 195.9 -63.7C203.7 -43.5 210 -21.8 216.3 0L0 0Z" fill="#000000"></path></g></svg>