<?xml version="1.0" standalone="no"?>
<!DOCTYPE svg PUBLIC "-//W3C//DTD SVG 20010904//EN"
 "http://www.w3.org/TR/2001/REC-SVG-20010904/DTD/svg10.dtd">
<svg version="1.0" xmlns="http://www.w3.org/2000/svg"
 width="300.000000pt" height="225.000000pt" viewBox="0 0 300.000000 225.000000"
 preserveAspectRatio="xMidYMid meet">
<metadata>
Created by potrace 1.10, written by Peter Selinger 2001-2011
</metadata>
<g transform="translate(0.000000,225.000000) scale(0.100000,-0.100000)"
fill="#000000" stroke="none">
<path d="M1021 2089 c-90 -18 -191 -104 -234 -199 -23 -51 -25 -145 -6 -211
31 -101 180 -200 316 -207 60 -3 80 0 125 20 71 33 133 96 169 171 48 103 38
229 -26 313 -65 85 -224 138 -344 113z m194 -34 c167 -47 239 -231 155 -396
-78 -151 -232 -209 -382 -143 -136 60 -184 113 -199 220 -12 84 5 150 54 211
100 124 205 155 372 108z"/>
<path d="M932 1924 c-11 -8 -14 -35 -13 -118 1 -103 9 -136 33 -136 5 0 16 -7
24 -15 23 -23 254 -25 282 -3 8 7 12 45 12 123 0 78 -4 116 -12 123 -34 27
-295 49 -326 26z m193 -16 c61 -1 57 -2 -33 -7 -92 -5 -106 -9 -122 -29 -12
-15 -17 -34 -15 -55 2 -17 6 -56 9 -85 5 -49 4 -52 -14 -42 -18 10 -20 22 -20
108 0 118 5 126 75 118 28 -3 82 -7 120 -8z m129 -55 c8 -54 7 -123 -2 -123
-5 0 -19 11 -32 25 -31 33 -72 33 -98 0 -17 -21 -21 -23 -32 -10 -18 22 -44
18 -78 -10 l-29 -24 -7 71 c-4 46 -3 75 4 82 11 11 102 21 211 24 l56 2 7 -37z
m-34 -121 c30 -26 42 -44 37 -55 -9 -23 -85 -31 -186 -21 -99 10 -112 25 -55
62 44 27 51 27 74 0 l17 -22 16 31 c15 28 28 40 48 42 4 1 26 -16 49 -37z"/>
<path d="M1150 1855 c-20 -25 -8 -50 25 -50 21 0 31 5 33 18 4 21 -14 47 -33
47 -7 0 -18 -7 -25 -15z m45 -25 c0 -22 -29 -18 -33 3 -3 14 1 18 15 15 10 -2
18 -10 18 -18z"/>
<path d="M1030 1831 c-12 -23 12 -54 38 -49 21 4 36 32 29 52 -9 22 -54 20
-67 -3z m50 -17 c0 -14 -21 -19 -33 -7 -9 9 13 34 24 27 5 -3 9 -12 9 -20z"/>
<path d="M2110 2091 c-68 -21 -137 -83 -180 -159 -20 -37 -18 -145 3 -214 52
-165 188 -250 352 -218 157 30 270 170 251 309 -15 109 -117 243 -210 274 -51
18 -170 22 -216 8z m205 -22 c50 -14 141 -104 175 -174 36 -73 35 -173 -2
-236 -56 -95 -141 -143 -258 -143 -91 -1 -140 15 -192 62 -47 42 -71 86 -92
169 -30 115 -16 176 57 252 59 61 106 81 197 81 41 0 93 -5 115 -11z"/>
<path d="M2140 1949 c-95 -55 -116 -193 -44 -279 45 -53 114 -76 142 -48 7 7
12 29 12 49 0 45 15 59 76 67 61 9 90 43 80 96 -8 41 -55 100 -97 122 -41 21
-127 18 -169 -7z m171 -15 c54 -28 92 -110 70 -151 -7 -14 -25 -22 -59 -27
-64 -8 -92 -35 -92 -86 0 -37 -2 -40 -27 -40 -94 0 -162 133 -119 233 35 83
140 116 227 71z"/>
<path d="M2237 1924 c-12 -12 -8 -41 8 -54 20 -17 47 5 43 34 -3 21 -37 34
-51 20z m39 -15 c10 -17 -13 -36 -27 -22 -12 12 -4 33 11 33 5 0 12 -5 16 -11z"/>
<path d="M2152 1911 c-8 -4 -12 -19 -10 -32 2 -18 9 -24 28 -24 19 0 26 6 28
24 3 20 -11 41 -28 41 -3 0 -11 -4 -18 -9z"/>
<path d="M2294 1856 c-11 -28 4 -48 33 -44 22 2 28 8 28 28 0 20 -6 26 -28 28
-18 2 -29 -2 -33 -12z"/>
<path d="M2093 1824 c-8 -20 8 -48 30 -52 22 -5 42 35 26 54 -16 19 -48 18
-56 -2z"/>
<path d="M1590 1510 c-110 -14 -149 -55 -158 -168 -4 -53 -10 -68 -33 -92 -28
-28 -29 -31 -29 -140 0 -74 5 -122 14 -145 15 -36 22 -38 114 -39 21 0 22 -4
21 -71 0 -38 -4 -109 -7 -157 l-7 -87 -101 -103 c-55 -57 -115 -122 -133 -145
-42 -55 -103 -172 -95 -184 9 -15 21 -2 27 28 12 60 102 178 251 332 l81 84
85 -13 c143 -22 234 -18 314 15 l70 28 63 -69 c61 -68 113 -152 113 -185 0
-10 11 -19 29 -22 15 -3 43 -18 61 -34 35 -29 80 -113 80 -150 0 -12 5 -25 10
-28 17 -10 11 47 -10 93 -29 65 -68 110 -106 124 -29 10 -41 24 -66 76 -18 40
-57 92 -101 138 l-70 75 7 171 c4 95 9 174 10 176 2 2 63 8 135 15 72 6 131
14 131 18 0 4 -12 15 -27 25 -16 9 -89 63 -163 118 -90 67 -129 102 -117 104
24 5 21 19 -5 27 -50 16 -85 53 -92 97 -13 80 -43 99 -158 97 -46 -1 -108 -5
-138 -9z m255 -30 c14 -11 31 -68 23 -76 -2 -2 -19 2 -36 8 -22 9 -32 19 -32
33 0 11 -7 30 -15 42 -15 21 -14 21 16 13 17 -5 37 -14 44 -20z m-69 -15 c17
-42 18 -49 1 -42 -22 8 -109 -12 -129 -30 -11 -9 -31 -19 -45 -21 -15 -2 -35
-8 -46 -13 -16 -9 -18 -8 -14 8 3 10 8 32 12 49 6 31 36 66 65 77 8 3 43 6 78
6 63 1 63 1 78 -34z m-213 3 c-12 -13 -26 -48 -32 -80 -12 -70 -36 -108 -65
-108 -22 0 -22 2 -15 65 5 36 13 74 19 85 14 26 68 60 94 60 19 0 19 -1 -1
-22z m281 -101 c66 -37 60 -51 -20 -44 -38 3 -86 11 -107 17 -31 9 -36 14 -27
25 25 30 104 31 154 2z m-224 -52 c-7 -8 -24 -15 -37 -15 -22 0 -24 2 -13 15
7 8 24 15 37 15 22 0 24 -2 13 -15z m236 -31 l102 -3 94 -73 c51 -40 120 -91
152 -113 l59 -40 -128 -8 c-71 -4 -130 -8 -131 -10 -2 -1 -4 -85 -6 -186 l-3
-183 -60 -26 c-50 -22 -75 -26 -150 -26 -49 0 -127 6 -172 13 l-83 13 0 38 c0
20 3 85 7 143 l6 107 48 0 c39 0 51 4 68 26 18 23 21 41 21 123 0 53 -4 112
-9 131 -5 19 -11 53 -14 76 l-5 41 52 -20 c37 -15 79 -21 152 -23z m-336 -94
l0 -80 -34 0 c-31 0 -34 3 -40 38 -3 20 -6 54 -6 74 0 35 2 37 38 41 20 2 38
4 40 5 1 1 2 -34 2 -78z m56 59 c17 -18 19 -37 19 -148 0 -158 -2 -161 -94
-161 -102 0 -105 4 -109 148 -4 116 5 162 28 162 6 0 10 -35 10 -80 l0 -80 56
0 56 0 -2 83 c-1 45 -2 85 -1 90 2 13 18 7 37 -14z m53 3 c18 -14 24 -33 31
-112 13 -133 -6 -200 -57 -200 -11 0 -11 5 -3 20 25 47 22 227 -5 293 -9 22 7
22 34 -1z"/>
<path d="M1940 1188 c-15 -20 -17 -20 -33 -3 -21 21 -36 12 -17 -10 23 -28 80
-13 80 22 0 19 -13 15 -30 -9z"/>
<path d="M1787 1173 c-14 -14 -21 -15 -36 -6 -23 14 -35 5 -20 -14 15 -17 53
-17 69 2 18 22 7 38 -13 18z"/>
<path d="M1917 933 c-4 -3 -7 -19 -7 -35 0 -21 5 -28 19 -28 20 0 30 23 23 53
-3 17 -23 23 -35 10z"/>
<path d="M1430 1050 c0 -5 25 -10 55 -10 30 0 55 5 55 10 0 6 -25 10 -55 10
-30 0 -55 -4 -55 -10z"/>
<path d="M675 1221 c-91 -23 -182 -114 -220 -222 -47 -132 22 -278 160 -341
63 -29 198 -31 257 -5 110 49 178 172 178 320 0 72 -16 108 -79 174 -37 39
-62 56 -102 67 -54 17 -142 19 -194 7z m198 -27 c66 -22 141 -105 157 -174 10
-44 10 -62 -5 -123 -32 -135 -87 -204 -183 -233 -243 -74 -460 148 -355 362
46 95 105 151 183 175 44 13 155 10 203 -7z"/>
<path d="M674 1076 c-39 -17 -64 -52 -64 -88 0 -16 17 -61 37 -101 21 -39 38
-76 39 -82 1 -5 2 -16 3 -22 1 -8 17 -13 44 -13 41 0 45 2 60 38 10 20 29 59
44 87 59 105 25 185 -79 192 -32 2 -66 -2 -84 -11z m136 -21 c55 -28 52 -91
-8 -192 -32 -55 -41 -63 -67 -62 -28 0 -33 6 -68 82 -51 111 -50 141 8 171 38
20 98 20 135 1z"/>
<path d="M663 1009 c-14 -14 -6 -39 12 -39 15 0 25 -31 25 -82 0 -20 5 -40 11
-44 9 -5 10 12 5 65 -4 39 -4 71 -1 71 3 0 15 -5 26 -10 17 -9 18 -18 13 -65
-4 -35 -3 -55 3 -55 6 0 13 23 15 51 4 36 11 54 27 65 11 8 21 19 21 25 0 15
-22 11 -43 -8 -19 -17 -19 -17 -13 5 6 16 3 22 -8 22 -9 0 -16 -6 -17 -12 0
-7 -4 -4 -9 7 -7 19 -8 19 -15 2 -7 -16 -9 -16 -24 -3 -13 12 -20 13 -28 5z"/>
<path d="M690 750 c0 -5 20 -10 44 -10 25 0 48 5 51 10 4 6 -13 10 -44 10 -28
0 -51 -4 -51 -10z"/>
<path d="M2030 555 c0 -40 -27 -85 -52 -85 -11 0 -35 16 -54 35 -36 39 -44 42
-44 20 0 -30 -29 -72 -57 -84 -36 -14 -72 -4 -169 48 -82 45 -84 45 -84 32 0
-5 40 -30 89 -55 112 -58 166 -62 204 -16 14 16 27 35 29 42 3 9 15 4 38 -15
41 -35 68 -32 97 12 23 34 31 91 13 91 -5 0 -10 -11 -10 -25z"/>
<path d="M1931 359 c22 -70 18 -92 -17 -115 -31 -21 -31 -34 1 -34 14 0 34 -9
46 -21 22 -22 20 -37 -12 -101 -10 -20 -15 -39 -11 -42 12 -7 52 80 52 113 0
28 -26 61 -48 61 -17 0 -15 15 3 30 27 22 9 157 -22 167 -7 3 -4 -21 8 -58z"/>
</g>
</svg>
